<svg width="80" height="80" xmlns="http://www.w3.org/2000/svg"><defs><linearGradient x1="-33.327%" y1="-58.179%" x2="100%" y2="104.047%" id="a"><stop stop-color="#0533BE" offset="0%"/><stop stop-color="#021789" offset="100%"/></linearGradient></defs><g fill="none" fill-rule="evenodd"><path d="M0 0h80v80H0z"/><path d="M57.98 33.662c6.083.008 11.013 4.964 11.02 11.081v7.421a3.49 3.49 0 01-3.48 3.5h-9.28V62.5A3.49 3.49 0 0152.76 66H27.24a3.49 3.49 0 01-3.48-3.5v-6.837h-9.28A3.49 3.49 0 0111 52.164v-7.42c.007-5.256 3.684-9.783 8.803-10.84 5.12-1.057 10.273 1.647 12.34 6.473a16.09 16.09 0 0115.715 0 11.044 11.044 0 0110.122-6.715zM40 40.661c-7.688 0-13.92 7.272-13.92 15.002v6.838c0 .644.52 1.166 1.16 1.166h25.52c.64 0 1.16-.522 1.16-1.166v-6.838c0-7.73-6.232-15.002-13.92-15.002zm-9.85 1.05c-1.457-3.972-5.536-6.32-9.679-5.574-4.143.746-7.157 4.374-7.151 8.606v7.421c0 .644.52 1.166 1.16 1.166h9.466c.61-4.217 2.836-9.032 6.203-11.62zm29.379-5.574c-4.143-.747-8.222 1.602-9.678 5.574 3.367 2.587 5.594 7.402 6.203 11.62h9.466c.64 0 1.16-.523 1.16-1.167v-7.42c.006-4.233-3.008-7.86-7.151-8.607zM40 15c5.766 0 10.44 4.7 10.44 10.498 0 5.797-4.674 10.497-10.44 10.497-5.763-.007-10.433-4.703-10.44-10.497C29.56 19.7 34.234 15 40 15zm0 2.333c-4.482.005-8.115 3.657-8.12 8.165 0 4.509 3.635 8.164 8.12 8.164 4.485 0 8.12-3.655 8.12-8.164 0-4.51-3.635-8.165-8.12-8.165zm-17.98 1.166c3.844 0 6.96 3.134 6.96 6.999 0 3.865-3.116 6.998-6.96 6.998-3.842-.004-6.956-3.135-6.96-6.998 0-3.865 3.116-6.999 6.96-6.999zm35.96 0c3.844 0 6.96 3.134 6.96 6.999 0 3.865-3.116 6.998-6.96 6.998-3.842-.004-6.956-3.135-6.96-6.998 0-3.865 3.116-6.999 6.96-6.999zm-35.96 2.333c-2.563 0-4.64 2.089-4.64 4.666 0 2.576 2.077 4.665 4.64 4.665 2.563 0 4.64-2.089 4.64-4.665 0-2.577-2.077-4.666-4.64-4.666zm35.96 0c-2.563 0-4.64 2.089-4.64 4.666 0 2.576 2.077 4.665 4.64 4.665 2.563 0 4.64-2.089 4.64-4.665 0-2.577-2.077-4.666-4.64-4.666z" fill="url(#a)"/></g></svg>