<svg width="80" height="80" xmlns="http://www.w3.org/2000/svg"><defs><linearGradient x1="-33.327%" y1="-89.913%" x2="100%" y2="119.902%" id="a"><stop stop-color="#0533BE" offset="0%"/><stop stop-color="#021789" offset="100%"/></linearGradient></defs><g fill="none" fill-rule="evenodd"><path d="M0 0h80v80H0z"/><path d="M65.52 11c.5 0 .942.32 1.1.793l2.32 6.956c.139.415.032.872-.276 1.183L56.407 32.267c7.92 8.825 7.432 22.331-1.107 30.56-8.538 8.23-22.062 8.23-30.6 0-8.539-8.229-9.028-21.735-1.107-30.56L11.336 19.932a1.159 1.159 0 01-.276-1.183l2.32-6.956a1.16 1.16 0 011.1-.793zM40 27.23c-10.891 0-19.72 8.823-19.72 19.707 0 10.885 8.829 19.708 19.72 19.708 10.886-.012 19.708-8.828 19.72-19.708 0-10.884-8.829-19.707-19.72-19.707zm-.005 3.52c.427 0 .822.226 1.04.593l4.165 8.435 9.314 1.351a1.16 1.16 0 01.647 1.983l-6.738 6.565 1.59 9.274a1.159 1.159 0 01-1.682 1.212L40 55.788l-8.331 4.375a1.16 1.16 0 01-1.682-1.221l1.59-9.275-6.738-6.555a1.159 1.159 0 01.642-1.978l9.314-1.352 4.161-8.44a1.208 1.208 0 011.04-.592zM40 34.475l-3.395 6.875a1.16 1.16 0 01-.874.635l-7.591 1.101 5.494 5.351c.273.267.397.65.333 1.026l-1.296 7.56 6.79-3.566a1.16 1.16 0 011.078-.005l6.79 3.571-1.297-7.56c-.065-.375.06-.76.333-1.026l5.494-5.35-7.591-1.102a1.16 1.16 0 01-.874-.635L40 34.475zM15.06 14.096l-1.573 4.708 11.724 11.8a22.992 22.992 0 013.675-2.687L15.06 14.097zm49.88 0L51.114 27.917a22.968 22.968 0 013.675 2.687l11.72-11.8-1.569-4.708zm-9.458 6.178H24.518l6.54 6.54a21.945 21.945 0 0117.874 0l6.55-6.54zm6.96-6.955H17.558l4.64 4.637h35.604l4.64-4.637z" fill="url(#a)"/></g></svg>