<svg width="80" height="80" xmlns="http://www.w3.org/2000/svg"><defs><linearGradient x1="-33.327%" y1="-89.913%" x2="100%" y2="119.902%" id="a"><stop stop-color="#0533BE" offset="0%"/><stop stop-color="#021789" offset="100%"/></linearGradient></defs><g fill="none" fill-rule="evenodd"><path d="M0 0h80v80H0z"/><path d="M46.96 11a3.48 3.48 0 013.48 3.48v3.48h15.08A3.48 3.48 0 0169 21.44v18.4a3.48 3.48 0 01-3.48 3.48v22.2A3.48 3.48 0 0162.04 69H17.96a3.48 3.48 0 01-3.48-3.48v-22.2A3.48 3.48 0 0111 39.84v-18.4a3.48 3.48 0 013.48-3.48h15.08v-3.48A3.48 3.48 0 0133.04 11zM34.2 43.32H16.8v22.2c0 .64.52 1.16 1.16 1.16H34.2V43.32zm29 0H45.8v23.36h16.24c.64 0 1.16-.52 1.16-1.16v-22.2zM40 35.2a3.48 3.48 0 00-3.48 3.48v28h6.96v-28A3.48 3.48 0 0040 35.2zm0 2.32c.64 0 1.16.52 1.16 1.16v4.64a1.16 1.16 0 01-2.32 0v-4.64c0-.64.52-1.16 1.16-1.16zm25.52-17.24H14.48c-.64 0-1.16.52-1.16 1.16v18.4c0 .64.52 1.16 1.16 1.16H34.2v-2.32a5.8 5.8 0 0111.6 0V41h19.72c.64 0 1.16-.52 1.16-1.16v-18.4c0-.64-.52-1.16-1.16-1.16zm-18.56-6.96H33.04c-.64 0-1.16.52-1.16 1.16v3.48h16.24v-3.48c0-.64-.52-1.16-1.16-1.16z" fill="url(#a)"/></g></svg>