<svg width="360" height="46" viewBox="0 0 360 46" fill="none" xmlns="http://www.w3.org/2000/svg">
<g filter="url(#filter0_d)">
<path d="M35.8379 26.1855C35.8379 29.3105 34.666 31.7275 32.3223 33.4365C29.9785 35.1455 26.7233 36 22.5566 36H5.34473V1.60059H21.0918C25.291 1.60059 28.4648 2.33301 30.6133 3.79785C32.778 5.24642 33.8604 7.39486 33.8604 10.2432C33.8604 12.1963 33.3151 13.8483 32.2246 15.1992C31.1504 16.5339 29.5065 17.4372 27.293 17.9092C30.0762 18.2347 32.1921 19.1136 33.6406 20.5459C35.1055 21.9619 35.8379 23.8418 35.8379 26.1855ZM26.6094 11.2197C26.6094 9.6735 26.113 8.57487 25.1201 7.92383C24.1436 7.27279 22.6868 6.94727 20.75 6.94727H12.5469V15.4678H20.7988C22.8333 15.4678 24.3063 15.1178 25.2178 14.418C26.1455 13.7018 26.6094 12.6357 26.6094 11.2197ZM28.6113 25.624C28.6113 22.4014 26.3001 20.79 21.6777 20.79H12.5469V30.6533H21.9463C24.2575 30.6533 25.9421 30.2383 27 29.4082C28.0742 28.5618 28.6113 27.3005 28.6113 25.624ZM41.4775 36V1.60059H48.6797V36H41.4775ZM71.7266 30.8486C73.5983 30.8486 75.4131 30.5801 77.1709 30.043C78.9287 29.4896 80.2878 28.7897 81.248 27.9434V23.1826H72.8496V17.8604H87.8398V30.5068C86.0169 32.3786 83.6406 33.8434 80.7109 34.9014C77.7975 35.9593 74.7376 36.4883 71.5312 36.4883C65.9323 36.4883 61.6273 34.9421 58.6162 31.8496C55.6051 28.7409 54.0996 24.3382 54.0996 18.6416C54.0996 12.9775 55.6133 8.63997 58.6406 5.62891C61.668 2.60156 66.0218 1.08789 71.7021 1.08789C79.7751 1.08789 84.9102 4.07454 87.1074 10.0479L80.4668 12.0498C79.7507 10.3083 78.6276 8.98991 77.0977 8.09473C75.5677 7.19954 73.7692 6.75195 71.7021 6.75195C68.3167 6.75195 65.7451 7.77734 63.9873 9.82812C62.2295 11.8789 61.3506 14.8167 61.3506 18.6416C61.3506 22.5316 62.2539 25.5426 64.0605 27.6748C65.8835 29.7907 68.4388 30.8486 71.7266 30.8486ZM138.719 26.1855C138.719 29.3105 137.547 31.7275 135.203 33.4365C132.859 35.1455 129.604 36 125.438 36H108.226V1.60059H123.973C128.172 1.60059 131.346 2.33301 133.494 3.79785C135.659 5.24642 136.741 7.39486 136.741 10.2432C136.741 12.1963 136.196 13.8483 135.105 15.1992C134.031 16.5339 132.387 17.4372 130.174 17.9092C132.957 18.2347 135.073 19.1136 136.521 20.5459C137.986 21.9619 138.719 23.8418 138.719 26.1855ZM129.49 11.2197C129.49 9.6735 128.994 8.57487 128.001 7.92383C127.024 7.27279 125.568 6.94727 123.631 6.94727H115.428V15.4678H123.68C125.714 15.4678 127.187 15.1178 128.099 14.418C129.026 13.7018 129.49 12.6357 129.49 11.2197ZM131.492 25.624C131.492 22.4014 129.181 20.79 124.559 20.79H115.428V30.6533H124.827C127.138 30.6533 128.823 30.2383 129.881 29.4082C130.955 28.5618 131.492 27.3005 131.492 25.624ZM144.358 36V1.60059H151.561V30.4336H170.018V36H144.358ZM189.231 36.4883C184.495 36.4883 180.866 35.3327 178.343 33.0215C175.836 30.7103 174.583 27.4062 174.583 23.1094V1.60059H181.785V22.5479C181.785 25.266 182.428 27.333 183.714 28.749C185.016 30.1488 186.92 30.8486 189.427 30.8486C191.998 30.8486 193.976 30.1162 195.359 28.6514C196.743 27.1702 197.435 25.0544 197.435 22.3037V1.60059H204.637V22.7432C204.637 27.1051 203.286 30.4906 200.584 32.8994C197.898 35.292 194.114 36.4883 189.231 36.4883ZM211.058 36V1.60059H238.108V7.16699H218.26V15.8096H236.619V21.376H218.26V30.4336H239.109V36H211.058ZM267.771 36.4883C264.207 36.4883 261.465 35.7152 259.544 34.1689C257.64 32.6227 256.37 30.1243 255.735 26.6738L262.889 25.624C263.182 27.3981 263.727 28.7165 264.524 29.5791C265.322 30.4255 266.421 30.8486 267.82 30.8486C269.253 30.8486 270.335 30.3685 271.067 29.4082C271.816 28.4479 272.19 27.0726 272.19 25.2822V7.24023H265.33V1.60059H279.368V25.1113C279.368 28.6921 278.351 31.4834 276.316 33.4854C274.282 35.4873 271.434 36.4883 267.771 36.4883ZM310.472 36L307.42 27.2109H294.31L291.258 36H284.056L296.604 1.60059H305.101L317.601 36H310.472ZM300.853 6.89844L300.706 7.43555C300.543 8.02148 300.348 8.6888 300.12 9.4375C299.892 10.1862 298.493 14.304 295.921 21.791H305.809L302.415 11.9033L301.365 8.58301L300.853 6.89844ZM345.921 36L337.938 22.9385H329.49V36H322.288V1.60059H339.476C343.577 1.60059 346.743 2.48763 348.973 4.26172C351.202 6.01953 352.317 8.55046 352.317 11.8545C352.317 14.2633 351.634 16.3467 350.267 18.1045C348.899 19.846 347.052 20.9935 344.725 21.5469L354.026 36H345.921ZM345.066 12.1475C345.066 8.84342 342.951 7.19141 338.719 7.19141H329.49V17.3477H338.914C340.932 17.3477 342.462 16.8919 343.504 15.9805C344.546 15.069 345.066 13.7913 345.066 12.1475Z" fill="#004381"/>
<path d="M5.34473 36H4.34473V37H5.34473V36ZM5.34473 1.60059V0.600586H4.34473V1.60059H5.34473ZM30.6133 3.79785L30.0499 4.62411L30.0571 4.62894L30.6133 3.79785ZM32.2246 15.1992L31.4465 14.5711L31.4456 14.5722L32.2246 15.1992ZM27.293 17.9092L27.0844 16.9312L27.1768 18.9024L27.293 17.9092ZM33.6406 20.5459L32.9375 21.257L32.9456 21.2649L33.6406 20.5459ZM25.1201 7.92383L24.5654 8.7559L24.5718 8.76007L25.1201 7.92383ZM12.5469 6.94727V5.94727H11.5469V6.94727H12.5469ZM12.5469 15.4678H11.5469V16.4678H12.5469V15.4678ZM25.2178 14.418L25.8268 15.2111L25.8288 15.2096L25.2178 14.418ZM12.5469 20.79V19.79H11.5469V20.79H12.5469ZM12.5469 30.6533H11.5469V31.6533H12.5469V30.6533ZM27 29.4082L27.6173 30.1949L27.6189 30.1937L27 29.4082ZM34.8379 26.1855C34.8379 29.0199 33.7962 31.1241 31.7331 32.6285L32.9114 34.2445C35.5358 32.3309 36.8379 29.6012 36.8379 26.1855H34.8379ZM31.7331 32.6285C29.6206 34.1689 26.6006 35 22.5566 35V37C26.846 37 30.3365 36.1221 32.9114 34.2445L31.7331 32.6285ZM22.5566 35H5.34473V37H22.5566V35ZM6.34473 36V1.60059H4.34473V36H6.34473ZM5.34473 2.60059H21.0918V0.600586H5.34473V2.60059ZM21.0918 2.60059C25.2028 2.60059 28.1412 3.32264 30.0499 4.62408L31.1766 2.97162C28.7885 1.34337 25.3792 0.600586 21.0918 0.600586V2.60059ZM30.0571 4.62894C31.9152 5.8723 32.8604 7.69173 32.8604 10.2432H34.8604C34.8604 7.09798 33.6408 4.62054 31.1694 2.96676L30.0571 4.62894ZM32.8604 10.2432C32.8604 11.9979 32.3755 13.4202 31.4465 14.5711L33.0027 15.8273C34.2547 14.2764 34.8604 12.3946 34.8604 10.2432H32.8604ZM31.4456 14.5722C30.5561 15.6774 29.1458 16.4916 27.0844 16.9312L27.5015 18.8872C29.8673 18.3827 31.7447 17.3904 33.0036 15.8262L31.4456 14.5722ZM27.1768 18.9024C29.8205 19.2116 31.6978 20.0312 32.9375 21.257L34.3437 19.8348C32.6863 18.196 30.3318 17.2578 27.4091 16.916L27.1768 18.9024ZM32.9456 21.2649C34.1857 22.4637 34.8379 24.0684 34.8379 26.1855H36.8379C36.8379 23.6151 36.0252 21.4601 34.3356 19.8269L32.9456 21.2649ZM27.6094 11.2197C27.6094 9.45069 27.0269 7.97838 25.6685 7.08758L24.5718 8.76007C25.199 9.17136 25.6094 9.89631 25.6094 11.2197H27.6094ZM25.6748 7.09178C24.4586 6.28099 22.7684 5.94727 20.75 5.94727V7.94727C22.6053 7.94727 23.8285 8.26458 24.5654 8.75588L25.6748 7.09178ZM20.75 5.94727H12.5469V7.94727H20.75V5.94727ZM11.5469 6.94727V15.4678H13.5469V6.94727H11.5469ZM12.5469 16.4678H20.7988V14.4678H12.5469V16.4678ZM20.7988 16.4678C22.9028 16.4678 24.6502 16.1146 25.8268 15.2111L24.6087 13.6248C23.9624 14.1211 22.7639 14.4678 20.7988 14.4678V16.4678ZM25.8288 15.2096C27.0537 14.264 27.6094 12.8736 27.6094 11.2197H25.6094C25.6094 12.3979 25.2373 13.1396 24.6067 13.6264L25.8288 15.2096ZM29.6113 25.624C29.6113 23.7401 28.9154 22.2 27.4498 21.1782C26.0499 20.2022 24.0744 19.79 21.6777 19.79V21.79C23.9035 21.79 25.3948 22.1835 26.306 22.8189C27.1517 23.4084 27.6113 24.2853 27.6113 25.624H29.6113ZM21.6777 19.79H12.5469V21.79H21.6777V19.79ZM11.5469 20.79V30.6533H13.5469V20.79H11.5469ZM12.5469 31.6533H21.9463V29.6533H12.5469V31.6533ZM21.9463 31.6533C24.3361 31.6533 26.2956 31.2319 27.6173 30.1949L26.3827 28.6215C25.5885 29.2446 24.1789 29.6533 21.9463 29.6533V31.6533ZM27.6189 30.1937C28.9881 29.1149 29.6113 27.5303 29.6113 25.624H27.6113C27.6113 27.0706 27.1603 28.0088 26.3811 28.6227L27.6189 30.1937ZM41.4775 36H40.4775V37H41.4775V36ZM41.4775 1.60059V0.600586H40.4775V1.60059H41.4775ZM48.6797 1.60059H49.6797V0.600586H48.6797V1.60059ZM48.6797 36V37H49.6797V36H48.6797ZM42.4775 36V1.60059H40.4775V36H42.4775ZM41.4775 2.60059H48.6797V0.600586H41.4775V2.60059ZM47.6797 1.60059V36H49.6797V1.60059H47.6797ZM48.6797 35H41.4775V37H48.6797V35ZM77.1709 30.043L77.4631 30.9994L77.4712 30.9968L77.1709 30.043ZM81.248 27.9434L81.9092 28.6936L82.248 28.395V27.9434H81.248ZM81.248 23.1826H82.248V22.1826H81.248V23.1826ZM72.8496 23.1826H71.8496V24.1826H72.8496V23.1826ZM72.8496 17.8604V16.8604H71.8496V17.8604H72.8496ZM87.8398 17.8604H88.8398V16.8604H87.8398V17.8604ZM87.8398 30.5068L88.5562 31.2045L88.8398 30.9133V30.5068H87.8398ZM80.7109 34.9014L80.3713 33.9608L80.3696 33.9614L80.7109 34.9014ZM58.6162 31.8496L57.8979 32.5453L57.8997 32.5472L58.6162 31.8496ZM58.6406 5.62891L59.3458 6.33792L59.3477 6.33601L58.6406 5.62891ZM87.1074 10.0479L87.3961 11.0053L88.4124 10.6989L88.0459 9.70262L87.1074 10.0479ZM80.4668 12.0498L79.5419 12.4301L79.8869 13.2691L80.7554 13.0072L80.4668 12.0498ZM77.0977 8.09473L76.5926 8.95784L77.0977 8.09473ZM64.0605 27.6748L63.2976 28.3213L63.3029 28.3275L64.0605 27.6748ZM71.7266 31.8486C73.6955 31.8486 75.6089 31.5659 77.4631 30.9993L76.8787 29.0866C75.2173 29.5943 73.5011 29.8486 71.7266 29.8486V31.8486ZM77.4712 30.9968C79.3081 30.4185 80.8087 29.6635 81.9092 28.6936L80.5868 27.1932C79.7668 27.9159 78.5493 28.5607 76.8706 29.0891L77.4712 30.9968ZM82.248 27.9434V23.1826H80.248V27.9434H82.248ZM81.248 22.1826H72.8496V24.1826H81.248V22.1826ZM73.8496 23.1826V17.8604H71.8496V23.1826H73.8496ZM72.8496 18.8604H87.8398V16.8604H72.8496V18.8604ZM86.8398 17.8604V30.5068H88.8398V17.8604H86.8398ZM87.1235 29.8091C85.4245 31.5536 83.1857 32.9445 80.3713 33.9608L81.0506 35.8419C84.0955 34.7424 86.6093 33.2036 88.5562 31.2045L87.1235 29.8091ZM80.3696 33.9614C77.5694 34.9783 74.6253 35.4883 71.5312 35.4883V37.4883C74.85 37.4883 78.0257 36.9404 81.0523 35.8413L80.3696 33.9614ZM71.5312 35.4883C66.1181 35.4883 62.104 33.9982 59.3327 31.152L57.8997 32.5472C61.1505 35.8859 65.7465 37.4883 71.5312 37.4883V35.4883ZM59.3345 31.1539C56.5556 28.2848 55.0996 24.1633 55.0996 18.6416H53.0996C53.0996 24.5131 54.6547 29.1969 57.8979 32.5453L59.3345 31.1539ZM55.0996 18.6416C55.0996 13.1537 56.5626 9.10613 59.3458 6.33792L57.9354 4.9199C54.6639 8.17382 53.0996 12.8014 53.0996 18.6416H55.0996ZM59.3477 6.33601C62.1324 3.55131 66.1973 2.08789 71.7021 2.08789V0.0878906C65.8463 0.0878906 61.2035 1.65181 57.9335 4.9218L59.3477 6.33601ZM71.7021 2.08789C75.6229 2.08789 78.7357 2.81408 81.1054 4.1923C83.4567 5.55988 85.1445 7.60815 86.1689 10.3931L88.0459 9.70262C86.8731 6.51425 84.8947 4.08254 82.1109 2.46346C79.3455 0.855031 75.8543 0.0878906 71.7021 0.0878906V2.08789ZM86.8188 9.09041L80.1782 11.0924L80.7554 13.0072L87.3961 11.0053L86.8188 9.09041ZM81.3917 11.6695C80.5978 9.73886 79.3339 8.24455 77.6027 7.23161L76.5926 8.95784C77.9213 9.73527 78.9036 10.8777 79.5419 12.4301L81.3917 11.6695ZM77.6027 7.23161C75.8957 6.23285 73.9169 5.75195 71.7021 5.75195V7.75195C73.6215 7.75195 75.2397 8.16624 76.5926 8.95784L77.6027 7.23161ZM71.7021 5.75195C68.1049 5.75195 65.2224 6.85059 63.228 9.17733L64.7466 10.4789C66.2678 8.7041 68.5286 7.75195 71.7021 7.75195V5.75195ZM63.228 9.17733C61.2611 11.4721 60.3506 14.6762 60.3506 18.6416H62.3506C62.3506 14.9573 63.1979 12.2857 64.7466 10.4789L63.228 9.17733ZM60.3506 18.6416C60.3506 22.6762 61.2874 25.9488 63.2976 28.3213L64.8235 27.0283C63.2205 25.1365 62.3506 22.387 62.3506 18.6416H60.3506ZM63.3029 28.3275C65.3501 30.7036 68.2047 31.8486 71.7266 31.8486V29.8486C68.6729 29.8486 66.4169 28.8777 64.8182 27.0221L63.3029 28.3275ZM108.226 36H107.226V37H108.226V36ZM108.226 1.60059V0.600586H107.226V1.60059H108.226ZM133.494 3.79785L132.931 4.62411L132.938 4.62894L133.494 3.79785ZM135.105 15.1992L134.327 14.5711L134.326 14.5722L135.105 15.1992ZM130.174 17.9092L129.965 16.9312L130.058 18.9024L130.174 17.9092ZM136.521 20.5459L135.818 21.257L135.826 21.2649L136.521 20.5459ZM128.001 7.92383L127.446 8.7559L127.453 8.76007L128.001 7.92383ZM115.428 6.94727V5.94727H114.428V6.94727H115.428ZM115.428 15.4678H114.428V16.4678H115.428V15.4678ZM128.099 14.418L128.708 15.2111L128.71 15.2096L128.099 14.418ZM115.428 20.79V19.79H114.428V20.79H115.428ZM115.428 30.6533H114.428V31.6533H115.428V30.6533ZM129.881 29.4082L130.498 30.1949L130.5 30.1937L129.881 29.4082ZM137.719 26.1855C137.719 29.0199 136.677 31.1241 134.614 32.6285L135.792 34.2445C138.417 32.3309 139.719 29.6012 139.719 26.1855H137.719ZM134.614 32.6285C132.501 34.1689 129.481 35 125.438 35V37C129.727 37 133.217 36.1221 135.792 34.2445L134.614 32.6285ZM125.438 35H108.226V37H125.438V35ZM109.226 36V1.60059H107.226V36H109.226ZM108.226 2.60059H123.973V0.600586H108.226V2.60059ZM123.973 2.60059C128.084 2.60059 131.022 3.32264 132.931 4.62408L134.057 2.97162C131.669 1.34337 128.26 0.600586 123.973 0.600586V2.60059ZM132.938 4.62894C134.796 5.8723 135.741 7.69173 135.741 10.2432H137.741C137.741 7.09798 136.522 4.62054 134.05 2.96676L132.938 4.62894ZM135.741 10.2432C135.741 11.9979 135.256 13.4202 134.327 14.5711L135.884 15.8273C137.136 14.2764 137.741 12.3946 137.741 10.2432H135.741ZM134.326 14.5722C133.437 15.6774 132.027 16.4916 129.965 16.9312L130.382 18.8872C132.748 18.3827 134.626 17.3904 135.884 15.8262L134.326 14.5722ZM130.058 18.9024C132.701 19.2116 134.579 20.0312 135.818 21.257L137.225 19.8348C135.567 18.196 133.213 17.2578 130.29 16.916L130.058 18.9024ZM135.826 21.2649C137.067 22.4637 137.719 24.0684 137.719 26.1855H139.719C139.719 23.6151 138.906 21.4601 137.217 19.8269L135.826 21.2649ZM130.49 11.2197C130.49 9.45069 129.908 7.97838 128.549 7.08758L127.453 8.76007C128.08 9.17136 128.49 9.89631 128.49 11.2197H130.49ZM128.556 7.09178C127.339 6.28099 125.649 5.94727 123.631 5.94727V7.94727C125.486 7.94727 126.709 8.26458 127.446 8.75588L128.556 7.09178ZM123.631 5.94727H115.428V7.94727H123.631V5.94727ZM114.428 6.94727V15.4678H116.428V6.94727H114.428ZM115.428 16.4678H123.68V14.4678H115.428V16.4678ZM123.68 16.4678C125.784 16.4678 127.531 16.1146 128.708 15.2111L127.49 13.6248C126.843 14.1211 125.645 14.4678 123.68 14.4678V16.4678ZM128.71 15.2096C129.935 14.264 130.49 12.8736 130.49 11.2197H128.49C128.49 12.3979 128.118 13.1396 127.488 13.6264L128.71 15.2096ZM132.492 25.624C132.492 23.7401 131.796 22.2 130.331 21.1782C128.931 20.2022 126.955 19.79 124.559 19.79V21.79C126.784 21.79 128.276 22.1835 129.187 22.8189C130.033 23.4084 130.492 24.2853 130.492 25.624H132.492ZM124.559 19.79H115.428V21.79H124.559V19.79ZM114.428 20.79V30.6533H116.428V20.79H114.428ZM115.428 31.6533H124.827V29.6533H115.428V31.6533ZM124.827 31.6533C127.217 31.6533 129.176 31.2319 130.498 30.1949L129.264 28.6215C128.469 29.2446 127.06 29.6533 124.827 29.6533V31.6533ZM130.5 30.1937C131.869 29.1149 132.492 27.5303 132.492 25.624H130.492C130.492 27.0706 130.041 28.0088 129.262 28.6227L130.5 30.1937ZM144.358 36H143.358V37H144.358V36ZM144.358 1.60059V0.600586H143.358V1.60059H144.358ZM151.561 1.60059H152.561V0.600586H151.561V1.60059ZM151.561 30.4336H150.561V31.4336H151.561V30.4336ZM170.018 30.4336H171.018V29.4336H170.018V30.4336ZM170.018 36V37H171.018V36H170.018ZM145.358 36V1.60059H143.358V36H145.358ZM144.358 2.60059H151.561V0.600586H144.358V2.60059ZM150.561 1.60059V30.4336H152.561V1.60059H150.561ZM151.561 31.4336H170.018V29.4336H151.561V31.4336ZM169.018 30.4336V36H171.018V30.4336H169.018ZM170.018 35H144.358V37H170.018V35ZM178.343 33.0215L177.665 33.7567L177.667 33.7588L178.343 33.0215ZM174.583 1.60059V0.600586H173.583V1.60059H174.583ZM181.785 1.60059H182.785V0.600586H181.785V1.60059ZM183.714 28.749L182.973 29.4213L182.982 29.4301L183.714 28.749ZM195.359 28.6514L196.086 29.338L196.09 29.334L195.359 28.6514ZM197.435 1.60059V0.600586H196.435V1.60059H197.435ZM204.637 1.60059H205.637V0.600586H204.637V1.60059ZM200.584 32.8994L201.249 33.6461L201.249 33.6458L200.584 32.8994ZM189.231 35.4883C184.649 35.4883 181.296 34.3708 179.018 32.2841L177.667 33.7588C180.435 36.2946 184.342 37.4883 189.231 37.4883V35.4883ZM179.021 32.2863C176.77 30.2113 175.583 27.2045 175.583 23.1094H173.583C173.583 27.608 174.902 31.2093 177.665 33.7567L179.021 32.2863ZM175.583 23.1094V1.60059H173.583V23.1094H175.583ZM174.583 2.60059H181.785V0.600586H174.583V2.60059ZM180.785 1.60059V22.5479H182.785V1.60059H180.785ZM180.785 22.5479C180.785 25.4104 181.462 27.7565 182.974 29.4213L184.454 28.0768C183.394 26.9096 182.785 25.1215 182.785 22.5479H180.785ZM182.982 29.4301C184.527 31.0914 186.733 31.8486 189.427 31.8486V29.8486C187.107 29.8486 185.505 29.2062 184.446 28.0679L182.982 29.4301ZM189.427 31.8486C192.193 31.8486 194.465 31.0547 196.086 29.338L194.632 27.9647C193.487 29.1778 191.804 29.8486 189.427 29.8486V31.8486ZM196.09 29.334C197.701 27.6099 198.435 25.2158 198.435 22.3037H196.435C196.435 24.8929 195.785 26.7306 194.629 27.9688L196.09 29.334ZM198.435 22.3037V1.60059H196.435V22.3037H198.435ZM197.435 2.60059H204.637V0.600586H197.435V2.60059ZM203.637 1.60059V22.7432H205.637V1.60059H203.637ZM203.637 22.7432C203.637 26.8837 202.364 29.9725 199.919 32.153L201.249 33.6458C204.207 31.0086 205.637 27.3266 205.637 22.7432H203.637ZM199.919 32.1528C197.473 34.3316 193.957 35.4883 189.231 35.4883V37.4883C194.271 37.4883 198.324 36.2524 201.249 33.6461L199.919 32.1528ZM211.058 36H210.058V37H211.058V36ZM211.058 1.60059V0.600586H210.058V1.60059H211.058ZM238.108 1.60059H239.108V0.600586H238.108V1.60059ZM238.108 7.16699V8.16699H239.108V7.16699H238.108ZM218.26 7.16699V6.16699H217.26V7.16699H218.26ZM218.26 15.8096H217.26V16.8096H218.26V15.8096ZM236.619 15.8096H237.619V14.8096H236.619V15.8096ZM236.619 21.376V22.376H237.619V21.376H236.619ZM218.26 21.376V20.376H217.26V21.376H218.26ZM218.26 30.4336H217.26V31.4336H218.26V30.4336ZM239.109 30.4336H240.109V29.4336H239.109V30.4336ZM239.109 36V37H240.109V36H239.109ZM212.058 36V1.60059H210.058V36H212.058ZM211.058 2.60059H238.108V0.600586H211.058V2.60059ZM237.108 1.60059V7.16699H239.108V1.60059H237.108ZM238.108 6.16699H218.26V8.16699H238.108V6.16699ZM217.26 7.16699V15.8096H219.26V7.16699H217.26ZM218.26 16.8096H236.619V14.8096H218.26V16.8096ZM235.619 15.8096V21.376H237.619V15.8096H235.619ZM236.619 20.376H218.26V22.376H236.619V20.376ZM217.26 21.376V30.4336H219.26V21.376H217.26ZM218.26 31.4336H239.109V29.4336H218.26V31.4336ZM238.109 30.4336V36H240.109V30.4336H238.109ZM239.109 35H211.058V37H239.109V35ZM259.544 34.1689L258.914 34.9453L258.917 34.9479L259.544 34.1689ZM255.735 26.6738L255.59 25.6844L254.564 25.835L254.752 26.8548L255.735 26.6738ZM262.889 25.624L263.875 25.4611L263.715 24.492L262.743 24.6346L262.889 25.624ZM264.524 29.5791L263.79 30.258L263.797 30.2649L264.524 29.5791ZM271.067 29.4082L270.279 28.7933L270.272 28.8018L271.067 29.4082ZM272.19 7.24023H273.19V6.24023H272.19V7.24023ZM265.33 7.24023H264.33V8.24023H265.33V7.24023ZM265.33 1.60059V0.600586H264.33V1.60059H265.33ZM279.368 1.60059H280.368V0.600586H279.368V1.60059ZM267.771 35.4883C264.336 35.4883 261.85 34.7415 260.171 33.39L258.917 34.9479C261.079 36.6888 264.078 37.4883 267.771 37.4883V35.4883ZM260.174 33.3926C258.52 32.0497 257.329 29.8084 256.719 26.4929L254.752 26.8548C255.411 30.4403 256.759 33.1957 258.914 34.9453L260.174 33.3926ZM255.881 27.6632L263.034 26.6134L262.743 24.6346L255.59 25.6844L255.881 27.6632ZM261.902 25.787C262.211 27.6588 262.807 29.1943 263.79 30.258L265.259 28.9002C264.647 28.2386 264.152 27.1374 263.875 25.4611L261.902 25.787ZM263.797 30.2649C264.821 31.352 266.206 31.8486 267.82 31.8486V29.8486C266.636 29.8486 265.823 29.4989 265.252 28.8933L263.797 30.2649ZM267.82 31.8486C269.499 31.8486 270.905 31.2706 271.863 30.0147L270.272 28.8018C269.765 29.4664 269.006 29.8486 267.82 29.8486V31.8486ZM271.856 30.0231C272.793 28.8214 273.19 27.1945 273.19 25.2822H271.19C271.19 26.9507 270.839 28.0745 270.279 28.7933L271.856 30.0231ZM273.19 25.2822V7.24023H271.19V25.2822H273.19ZM272.19 6.24023H265.33V8.24023H272.19V6.24023ZM266.33 7.24023V1.60059H264.33V7.24023H266.33ZM265.33 2.60059H279.368V0.600586H265.33V2.60059ZM278.368 1.60059V25.1113H280.368V1.60059H278.368ZM278.368 25.1113C278.368 28.4962 277.413 31.0038 275.615 32.7726L277.018 34.1981C279.289 31.963 280.368 28.8879 280.368 25.1113H278.368ZM275.615 32.7726C273.816 34.5424 271.249 35.4883 267.771 35.4883V37.4883C271.618 37.4883 274.747 36.4322 277.018 34.1981L275.615 32.7726ZM310.472 36L309.527 36.328L309.76 37H310.472V36ZM307.42 27.2109L308.365 26.8829L308.131 26.2109H307.42V27.2109ZM294.31 27.2109V26.2109H293.598L293.365 26.8829L294.31 27.2109ZM291.258 36V37H291.969L292.202 36.328L291.258 36ZM284.056 36L283.116 35.6573L282.626 37H284.056V36ZM296.604 1.60059V0.600586H295.905L295.665 1.25788L296.604 1.60059ZM305.101 1.60059L306.04 1.25906L305.801 0.600586H305.101V1.60059ZM317.601 36V37H319.028L318.54 35.6585L317.601 36ZM300.853 6.89844L301.809 6.60728L300.8 3.29092L299.888 6.63532L300.853 6.89844ZM300.706 7.43555L301.67 7.70319L301.671 7.69866L300.706 7.43555ZM295.921 21.791L294.975 21.4662L294.52 22.791H295.921V21.791ZM305.809 21.791V22.791H307.209L306.754 21.4664L305.809 21.791ZM302.415 11.9033L301.462 12.2048L301.465 12.2164L301.469 12.2279L302.415 11.9033ZM301.365 8.58301L300.409 8.87419L300.412 8.88447L301.365 8.58301ZM311.416 35.672L308.365 26.8829L306.475 27.5389L309.527 36.328L311.416 35.672ZM307.42 26.2109H294.31V28.2109H307.42V26.2109ZM293.365 26.8829L290.313 35.672L292.202 36.328L295.254 27.5389L293.365 26.8829ZM291.258 35H284.056V37H291.258V35ZM284.995 36.3427L297.544 1.94329L295.665 1.25788L283.116 35.6573L284.995 36.3427ZM296.604 2.60059H305.101V0.600586H296.604V2.60059ZM304.161 1.94211L316.661 36.3415L318.54 35.6585L306.04 1.25906L304.161 1.94211ZM317.601 35H310.472V37H317.601V35ZM299.888 6.63532L299.741 7.17243L301.671 7.69866L301.817 7.16155L299.888 6.63532ZM299.743 7.1679C299.582 7.74412 299.39 8.40337 299.163 9.14634L301.077 9.72866C301.306 8.97424 301.504 8.29885 301.67 7.70319L299.743 7.1679ZM299.163 9.14634C298.942 9.87281 297.552 13.9645 294.975 21.4662L296.867 22.1159C299.433 14.6435 300.842 10.4996 301.077 9.72866L299.163 9.14634ZM295.921 22.791H305.809V20.791H295.921V22.791ZM306.754 21.4664L303.361 11.5787L301.469 12.2279L304.863 22.1156L306.754 21.4664ZM303.369 11.6019L302.319 8.28154L300.412 8.88447L301.462 12.2048L303.369 11.6019ZM302.322 8.29185L301.809 6.60728L299.896 7.1896L300.409 8.87417L302.322 8.29185ZM345.921 36L345.068 36.5215L345.36 37H345.921V36ZM337.938 22.9385L338.791 22.417L338.498 21.9385H337.938V22.9385ZM329.49 22.9385V21.9385H328.49V22.9385H329.49ZM329.49 36V37H330.49V36H329.49ZM322.288 36H321.288V37H322.288V36ZM322.288 1.60059V0.600586H321.288V1.60059H322.288ZM348.973 4.26172L348.35 5.04426L348.354 5.04704L348.973 4.26172ZM350.267 18.1045L351.053 18.722L351.056 18.7184L350.267 18.1045ZM344.725 21.5469L344.493 20.574L343.119 20.9006L343.884 22.0881L344.725 21.5469ZM354.026 36V37H355.859L354.867 35.4588L354.026 36ZM329.49 7.19141V6.19141H328.49V7.19141H329.49ZM329.49 17.3477H328.49V18.3477H329.49V17.3477ZM343.504 15.9805L342.845 15.2279L343.504 15.9805ZM346.774 35.4785L338.791 22.417L337.084 23.46L345.068 36.5215L346.774 35.4785ZM337.938 21.9385H329.49V23.9385H337.938V21.9385ZM328.49 22.9385V36H330.49V22.9385H328.49ZM329.49 35H322.288V37H329.49V35ZM323.288 36V1.60059H321.288V36H323.288ZM322.288 2.60059H339.476V0.600586H322.288V2.60059ZM339.476 2.60059C343.448 2.60059 346.36 3.46122 348.35 5.04426L349.595 3.47918C347.125 1.51404 343.707 0.600586 339.476 0.600586V2.60059ZM348.354 5.04704C350.302 6.58287 351.317 8.80037 351.317 11.8545H353.317C353.317 8.30054 352.103 5.4562 349.592 3.4764L348.354 5.04704ZM351.317 11.8545C351.317 14.0603 350.696 15.923 349.477 17.4906L351.056 18.7184C352.571 16.7704 353.317 14.4664 353.317 11.8545H351.317ZM349.48 17.487C348.264 19.036 346.62 20.0684 344.493 20.574L344.956 22.5198C347.484 21.9186 349.535 20.6561 351.053 18.722L349.48 17.487ZM343.884 22.0881L353.185 36.5412L354.867 35.4588L345.566 21.0057L343.884 22.0881ZM354.026 35H345.921V37H354.026V35ZM346.066 12.1475C346.066 10.2662 345.451 8.70138 344.095 7.64221C342.785 6.61978 340.937 6.19141 338.719 6.19141V8.19141C340.732 8.19141 342.058 8.58904 342.864 9.21863C343.623 9.81148 344.066 10.7247 344.066 12.1475H346.066ZM338.719 6.19141H329.49V8.19141H338.719V6.19141ZM328.49 7.19141V17.3477H330.49V7.19141H328.49ZM329.49 18.3477H338.914V16.3477H329.49V18.3477ZM338.914 18.3477C341.066 18.3477 342.871 17.8634 344.162 16.733L342.845 15.2279C342.054 15.9204 340.799 16.3477 338.914 16.3477V18.3477ZM344.162 16.733C345.462 15.5958 346.066 14.0203 346.066 12.1475H344.066C344.066 13.5624 343.629 14.5422 342.845 15.2279L344.162 16.733Z" fill="black"/>
</g>
<defs>
<filter id="filter0_d" x="0.344727" y="0.0878906" width="359.514" height="45.4004" filterUnits="userSpaceOnUse" color-interpolation-filters="sRGB">
<feFlood flood-opacity="0" result="BackgroundImageFix"/>
<feColorMatrix in="SourceAlpha" type="matrix" values="0 0 0 0 0 0 0 0 0 0 0 0 0 0 0 0 0 0 127 0"/>
<feOffset dy="4"/>
<feGaussianBlur stdDeviation="2"/>
<feColorMatrix type="matrix" values="0 0 0 0 0 0 0 0 0 0 0 0 0 0 0 0 0 0 0.25 0"/>
<feBlend mode="normal" in2="BackgroundImageFix" result="effect1_dropShadow"/>
<feBlend mode="normal" in="SourceGraphic" in2="effect1_dropShadow" result="shape"/>
</filter>
</defs>
</svg>
